<svg width="16" height="16" viewBox="0 0 16 16" fill="none" xmlns="http://www.w3.org/2000/svg">
<path fill-rule="evenodd" clip-rule="evenodd" d="M11.6724 4.46387L6.40039 9.73587L3.52839 6.87187L2.40039 7.99987L6.40039 11.9999L12.8004 5.59987L11.6724 4.46387ZM8 0C3.584 0 0 3.584 0 8C0 12.416 3.584 16 8 16C12.416 16 16 12.416 16 8C16 3.584 12.416 0 8 0ZM7.99961 14.3996C4.46361 14.3996 1.59961 11.5356 1.59961 7.99961C1.59961 4.46361 4.46361 1.59961 7.99961 1.59961C11.5356 1.59961 14.3996 4.46361 14.3996 7.99961C14.3996 11.5356 11.5356 14.3996 7.99961 14.3996Z" fill="#6200EE"/>
</svg>
