<svg width="14" height="16" viewBox="0 0 14 16" fill="none" xmlns="http://www.w3.org/2000/svg">
<path d="M2.5 9.49981C2.5 10.0873 2.61563 10.6436 2.84688 11.1686C3.07812 11.6936 3.4125 12.1436 3.85 12.5186C3.8 12.4186 3.7625 12.3123 3.7375 12.1998C3.7125 12.0873 3.7 11.9748 3.7 11.8623C3.7625 11.5248 3.87188 11.2123 4.02813 10.9248C4.18438 10.6373 4.3875 10.3686 4.6375 10.1186L7 7.7748L9.38125 10.1186C9.63125 10.3686 9.83438 10.6373 9.99063 10.9248C10.1469 11.2123 10.25 11.5248 10.3 11.8623C10.3 11.9748 10.2875 12.0873 10.2625 12.1998C10.2375 12.3123 10.2063 12.4186 10.1688 12.5186C10.5813 12.1436 10.9094 11.6936 11.1531 11.1686C11.3969 10.6436 11.5187 10.0873 11.5187 9.49981C11.5187 8.9248 11.4 8.35606 11.1625 7.79356C10.925 7.23106 10.5812 6.70605 10.1312 6.21855C9.86875 6.36855 9.59687 6.4873 9.31562 6.5748C9.03437 6.6623 8.76875 6.70605 8.51875 6.70605C7.79375 6.70605 7.17188 6.4873 6.65313 6.0498C6.13438 5.6123 5.80625 5.0248 5.66875 4.2873V3.9123C5.18125 4.2873 4.74375 4.6998 4.35625 5.1498C3.96875 5.5998 3.6375 6.06543 3.3625 6.54668C3.0875 7.02793 2.875 7.52168 2.725 8.02793C2.575 8.53418 2.5 9.02481 2.5 9.49981ZM7 10.2498L5.875 11.3748C5.7125 11.5248 5.59375 11.6904 5.51875 11.8717C5.44375 12.0529 5.40625 12.2498 5.40625 12.4623C5.40625 12.8873 5.5625 13.2498 5.875 13.5498C6.1875 13.8498 6.5625 13.9998 7 13.9998C7.4375 13.9998 7.8125 13.8498 8.125 13.5498C8.4375 13.2498 8.59375 12.8811 8.59375 12.4436C8.59375 12.2436 8.55625 12.0529 8.48125 11.8717C8.40625 11.6904 8.29375 11.5248 8.14375 11.3748L7 10.2498ZM7.28125 0.799805V3.7248C7.28125 4.0748 7.4 4.36543 7.6375 4.59668C7.875 4.82793 8.16875 4.94355 8.51875 4.94355C8.70625 4.94355 8.87813 4.90605 9.03437 4.83105C9.19062 4.75605 9.33125 4.6373 9.45625 4.4748L9.925 3.8748C10.9625 4.4748 11.7812 5.27793 12.3812 6.28418C12.9812 7.29043 13.2812 8.36231 13.2812 9.49981C13.2812 11.2498 12.6719 12.7342 11.4531 13.9529C10.2344 15.1717 8.75 15.7811 7 15.7811C5.25 15.7811 3.76562 15.1717 2.54688 13.9529C1.32812 12.7342 0.71875 11.2498 0.71875 9.49981C0.71875 7.83731 1.30313 6.21543 2.47188 4.63418C3.64062 3.05293 5.24375 1.7748 7.28125 0.799805Z" fill="black"/>
</svg>
