<svg width="278" height="234" viewBox="0 0 278 234" fill="none" xmlns="http://www.w3.org/2000/svg">
<path d="M39.5595 214.545L0 234H278V204.277L274.207 202.115L269.329 199.413L268.788 194.55V189.686L263.368 186.984H255.782L248.737 180.499L237.357 171.852L228.144 167.529L211.887 166.448H197.255V145.372L199.965 132.402L202.133 122.134L207.552 108.083L211.887 94.5727L215.68 86.4665L216.764 76.1986L215.68 55.6628L214.596 48.097L209.719 38.9099L204.842 28.642L196.713 19.9954L186.959 12.4296L182.082 11.3487L176.663 10.8083L172.869 8.10624L167.992 3.78291L156.612 2.16166L145.774 0H139.813L132.226 0.540416L127.349 2.70208H121.388L116.511 5.40416L112.175 8.10624L107.84 10.8083H104.047L105.131 14.0508V21.0762L104.047 23.7783L98.6277 29.7229L92.6667 37.2887L89.9571 42.1524L83.9961 57.2841L80.7446 67.0116V82.6836L82.9123 86.4665L83.9961 88.6282L85.0799 91.8707L81.8285 96.7344L80.7446 99.4365V103.219L82.9123 106.462L80.7446 111.326V114.028V122.674L82.9123 132.402V140.508L88.3314 146.993L91.5828 153.478V162.125L93.2086 167.529L97.002 171.852H112.717L109.466 176.716L100.795 182.661H95.9181H91.5828H86.7057H82.9123L79.1189 185.363V191.848L66.1131 196.711V201.575L62.3197 204.818L56.3587 207.52L39.5595 214.545Z" fill="url(#paint0_linear_1309_5001)"/>
<defs>
<linearGradient id="paint0_linear_1309_5001" x1="139" y1="0" x2="139" y2="234" gradientUnits="userSpaceOnUse">
<stop stop-color="#BCBCBC"/>
<stop offset="1" stop-color="#F4F4F4"/>
</linearGradient>
</defs>
</svg>
