<svg width="56" height="56" viewBox="0 0 56 56" fill="none" xmlns="http://www.w3.org/2000/svg">
<rect width="56" height="56" rx="12" fill="white"/>
<path d="M34 46H30V42H34V46ZM30 32H26V42H30V32ZM46 28H42V36H46V28ZM42 24H38V28H42V24ZM18 28H14V32H18V28ZM14 24H10V28H14V24ZM28 14H32V10H28V14ZM13 13V19H19V13H13ZM22 22H10V10H22V22ZM13 37V43H19V37H13ZM22 46H10V34H22V46ZM37 13V19H43V13H37ZM46 22H34V10H46V22ZM42 42V36H34V40H38V46H46V42H42ZM38 28H30V32H38V28ZM30 24H18V28H22V32H26V28H30V24ZM32 22V18H28V14H24V22H32ZM17.5 14.5H14.5V17.5H17.5V14.5ZM17.5 38.5H14.5V41.5H17.5V38.5ZM41.5 14.5H38.5V17.5H41.5V14.5Z" fill="black"/>
</svg>
