<svg width="32" height="32" viewBox="0 0 32 32" fill="none" xmlns="http://www.w3.org/2000/svg">
<rect width="32" height="32" rx="4" fill="black" fill-opacity="0.54"/>
<path d="M15 13H17V15H15V13ZM13 15H15V17H13V15ZM17 15H19V17H17V15ZM19 13H21V15H19V13ZM11 13H13V15H11V13ZM23 7H9C7.9 7 7 7.9 7 9V23C7 24.1 7.9 25 9 25H23C24.1 25 25 24.1 25 23V9C25 7.9 24.1 7 23 7ZM13 22H11V20H13V22ZM17 22H15V20H17V22ZM21 22H19V20H21V22ZM23 15H21V17H23V19H21V17H19V19H17V17H15V19H13V17H11V19H9V17H11V15H9V9H23V15Z" fill="white"/>
</svg>
